<?xml version="1.0" encoding="utf-8"?>
<!-- Generator: Adobe Illustrator 24.1.2, SVG Export Plug-In . SVG Version: 6.00 Build 0)  -->
<svg version="1.1" id="Camada_1" xmlns="http://www.w3.org/2000/svg" xmlns:xlink="http://www.w3.org/1999/xlink" x="0px" y="0px"
	 viewBox="0 0 79.1 97.6" style="enable-background:new 0 0 79.1 97.6;" xml:space="preserve">
<style type="text/css">
	.st0{fill:#F28585;}
</style>
<desc>Created with Sketch.</desc>
<g>
	<path class="st0" d="M74.9,16.2v4.5c0,1.2-1,2.3-2.3,2.3H5.2c-1.2,0-2.3-1-2.3-2.3v-4.5c0-1.2,1-2.2,2.3-2.2h20.2V9.5
		c0-2.5,2-4.5,4.5-4.5h18c2.5,0,4.5,2,4.5,4.5V14h20.2C73.9,14,74.9,15,74.9,16.2z M11.3,86.6c0.3,4.7,4.3,8.4,9,8.4h37.3
		c4.7,0,8.7-3.6,9-8.4L70.4,32h-63L11.3,86.6z"/>
</g>
</svg>
