<?xml version="1.0" encoding="utf-8"?>
<!-- Generator: Adobe Illustrator 24.1.2, SVG Export Plug-In . SVG Version: 6.00 Build 0)  -->
<svg version="1.1" id="Camada_1" xmlns="http://www.w3.org/2000/svg" xmlns:xlink="http://www.w3.org/1999/xlink" x="0px" y="0px"
	 viewBox="0 0 100 98.7" style="enable-background:new 0 0 100 98.7;" xml:space="preserve">
<style type="text/css">
	.st0{fill:#EA6B66;}
</style>
<path class="st0" d="M96.6,32.7L81.9,18.1V7.3c0-2.6-2.1-4.7-4.7-4.7l0,0H22.8c-2.6,0-4.7,2.1-4.7,4.7v10.9L3.4,32.7
	c-0.9,0.9-1.4,2.1-1.4,3.4v10.7C1.9,53,7,58.1,13.3,58.1h0.5c3.5,0,6.7-1.6,8.9-4.3c2.2,2.7,5.4,4.3,8.9,4.3H32
	c3.5,0,6.7-1.6,8.9-4.3c2.2,2.7,5.4,4.3,8.9,4.3h0.5c3.5,0,6.7-1.6,8.9-4.3c2.2,2.7,5.4,4.3,8.9,4.3h0.5c3.5,0,6.7-1.6,8.9-4.3
	c2.2,2.7,5.4,4.3,8.9,4.3h0.5c6.3,0,11.4-5.1,11.4-11.4V36.1C98.1,34.8,97.5,33.6,96.6,32.7z M23.1,7.5h53.8v9.2H23.1V7.5z
	 M20.2,46.7c0,3.5-2.9,6.4-6.4,6.4h-0.5c-3.5,0-6.4-2.9-6.4-6.4v-9.1h13.2V46.7z M38.4,46.7c0,3.5-2.9,6.4-6.4,6.4h-0.5
	c-3.5,0-6.4-2.9-6.4-6.4v-9.1h13.2L38.4,46.7z M56.6,46.7c0,3.5-2.9,6.4-6.4,6.4h-0.5c-3.5,0-6.4-2.9-6.4-6.4v-9.1h13.2L56.6,46.7z
	 M74.8,46.7c0,3.5-2.9,6.4-6.4,6.4H68c-3.5,0-6.4-2.9-6.4-6.4v-9.1h13.2L74.8,46.7z M77.3,32.6H10.5l11.1-10.9h56.8l11.1,10.9
	L77.3,32.6z M93.1,46.7c0,3.5-2.9,6.4-6.4,6.4l0,0h-0.5c-3.5,0-6.4-2.9-6.4-6.4c0,0,0,0,0,0v-9.1h13.2V46.7z M76,85.5
	c1.4,0,2.5-1.1,2.5-2.5V68c0-1.4-1.1-2.5-2.5-2.5H55.9c-1.4,0-2.5,1.1-2.5,2.5v15c0,1.4,1.1,2.5,2.5,2.5H76z M58.3,70.5h15.2v10
	H58.4L58.3,70.5z M95.5,92.5h-6.4V63.7c0-1.4-1.1-2.5-2.5-2.5s-2.5,1.1-2.5,2.5l0,0v28.8h-37V68c0-1.4-1.1-2.5-2.5-2.5H25.5
	c-1.4,0-2.5,1.1-2.5,2.5c0,0,0,0,0,0v24.5h-7.1V63.7c0-1.4-1.1-2.5-2.5-2.5s-2.5,1.1-2.5,2.5l0,0v28.8H4.4c-1.4,0-2.5,1.1-2.5,2.5
	s1.1,2.5,2.5,2.5h91.1c1.4,0,2.5-1.1,2.5-2.5S96.9,92.5,95.5,92.5L95.5,92.5z M42.1,92.5H28v-22h14.2L42.1,92.5z"/>
</svg>
