<?xml version="1.0" encoding="utf-8"?>
<!-- Generator: Adobe Illustrator 24.1.2, SVG Export Plug-In . SVG Version: 6.00 Build 0)  -->
<svg version="1.1" id="Camada_1" xmlns="http://www.w3.org/2000/svg" xmlns:xlink="http://www.w3.org/1999/xlink" x="0px" y="0px"
	 viewBox="0 0 100 95" style="enable-background:new 0 0 100 95;" xml:space="preserve">
<desc>Created with Sketch.</desc>
<g>
	<path d="M33,20c6.1,0,11,5.1,11,11.5S39.1,43,33,43s-11-5.1-11-11.5S26.9,20,33,20z M33,37.3c3,0,5.5-2.6,5.5-5.8S36,25.8,33,25.8
		s-5.5,2.6-5.5,5.8S30,37.3,33,37.3z M89.4,3C92.5,3,95,5.5,95,8.6v78.8c0,3.1-2.5,5.6-5.6,5.6H10.6C7.5,93,5,90.5,5,87.4V8.6
		C5,5.5,7.5,3,10.6,3H89.4z M10.6,84.6c0,0.8,0.3,1.5,0.8,2C10.9,86,10.6,85.3,10.6,84.6z M89.4,84.6v-8.4L68.9,55.6
		c-1.1-1.1-2.9-1.1-4,0c0,0-13.5,13.5-16.5,16.5c-3,3-5,2.9-8,0c-2.9-3-5.3-5.3-5.3-5.3c-1.1-1.1-2.9-1.1-4,0L11.5,86.6
		c0.5,0.5,1.2,0.8,2,0.8h73.1C88.1,87.4,89.4,86.1,89.4,84.6z M89.4,68.2V11.4c0-1.6-1.3-2.8-2.8-2.8H13.4c-1.6,0-2.8,1.3-2.8,2.8
		v68l18.5-18.5c2.2-2.2,5.8-2.2,8,0l7.3,7.3l18.5-18.5c2.2-2.2,5.8-2.2,8,0L89.4,68.2z"/>
</g>
</svg>
