<?xml version="1.0" encoding="utf-8"?>
<!-- Generator: Adobe Illustrator 24.1.2, SVG Export Plug-In . SVG Version: 6.00 Build 0)  -->
<svg version="1.1" xmlns="http://www.w3.org/2000/svg" xmlns:xlink="http://www.w3.org/1999/xlink" x="0px" y="0px"
	 viewBox="0 0 100 85" style="enable-background:new 0 0 100 85;" xml:space="preserve">
<style type="text/css">
	.st0{fill:#EA6B66;}
</style>
<g id="Camada_2">
</g>
<g id="Camada_1">
	<path class="st0" d="M96.6,29.8L86.1,39c-1.1,1-2.9,0.8-3.8-0.4l-5.8-8.1l-1.4,50.1c0,1.4-1.2,2.5-2.6,2.5H27.4
		c-1.4,0-2.5-1.1-2.6-2.5l-1.4-50.1l-5.8,8c-0.9,1.2-2.6,1.4-3.8,0.4L3.4,29.8c-1-0.9-1.2-2.5-0.3-3.5L18,7.8
		C20.9,4.1,25.4,2,30.1,2h7c0.8,0,1.5,0.5,1.9,1.2c2.4,4.8,5.6,8,11.5,8S59.6,8,62,3.2C62.4,2.5,63.1,2,63.9,2h6.2
		c4.7,0,9.2,2.1,12.2,5.8l14.9,18.5C97.8,27.3,97.7,28.9,96.6,29.8z"/>
</g>
</svg>
