<?xml version="1.0" encoding="utf-8"?>
<!-- Generator: Adobe Illustrator 24.1.2, SVG Export Plug-In . SVG Version: 6.00 Build 0)  -->
<svg version="1.1" id="Camada_1" xmlns="http://www.w3.org/2000/svg" xmlns:xlink="http://www.w3.org/1999/xlink" x="0px" y="0px"
	 viewBox="0 0 96.2 103.8" style="enable-background:new 0 0 96.2 103.8;" xml:space="preserve">
<path d="M74.4,10.7c0,0-23.9-22.6-52.1,3.4c0,0-15.2,12.4-12.1,49.3c0,0,2.5,26-10.2,29.1c0,0,12.7-0.9,17.1-8.1
	c0,0,1.2,7.1-8.1,9.6c0,0,16.4,0.6,24.7-6.5c0.5,0.6,0.9,1.2,1.4,1.9c2.5,3.2,5.4,6.2,8.6,8.4c3.1,2.2,6.6,3.7,10.2,3.7
	s7.1-1.5,10.2-3.7c1.2-0.9,2.4-1.8,3.5-2.9c8.4-2.3,24.5-9.8,26.6-34.7C94.2,60.3,97.3,11.9,74.4,10.7z M53.9,98.3
	c-2.7,0-5.6-1.1-8.4-3.1c-4.2-2.9-8.1-7.7-11.3-12.5c-3.1-4.8-5.4-9.7-6.4-12.7c-0.1-0.3-0.2-0.5-0.3-0.8c-0.2-1.8,0-3.5,0.6-4.9
	c0,0,8.7-21.4,22.3-24.2c0,0-5.3,8.1-9.9,10.5c0,0,22.6-3.4,33.2-11.2c0,0,1.9-0.3,1.9,3.4c0,0,1.5,12.1,5.6,17.1
	c0,0,0.1,3.2-0.5,7.8l-0.2,0.6c-0.2,0.5-0.4,1.1-0.6,1.7c-1.3,4-5,11.3-9.8,17.4c-2.4,3.1-5.1,5.8-7.9,7.8
	C59.5,97.2,56.6,98.3,53.9,98.3z"/>
</svg>
