<?xml version="1.0" encoding="utf-8"?>
<!-- Generator: Adobe Illustrator 24.1.2, SVG Export Plug-In . SVG Version: 6.00 Build 0)  -->
<svg version="1.1" id="Camada_1" xmlns="http://www.w3.org/2000/svg" xmlns:xlink="http://www.w3.org/1999/xlink" x="0px" y="0px"
	 viewBox="0 0 99.8 101.2" style="enable-background:new 0 0 99.8 101.2;" xml:space="preserve">
<path d="M69.1,39.5c2.8-14.2-8.8-31.8-17.4-35.1c-16-6.1-39.3-5.9-47.4,18c-1.5,5.4-5.9,18.3,1,36.1c7.6,19.7,8.3,31.4,1.5,40.1
	c16.1,0.1,22.6-21.3,18.3-30.3c0,0-9.9-13.9-9.9-17.6c0,0-2.5-16.6,5.4-7.1c0,0-5.8-17.7,3.9-21.7c4.6-1.9,30.4,16.8,30.4,16.8
	s4,4,4.1,6.7c0.2,7-1.1,23.7-12.2,25.8c0,0,1.2,57.7,53,13C99.7,84,56,106.4,69.1,39.5z"/>
</svg>
