<?xml version="1.0" encoding="utf-8"?>
<!-- Generator: Adobe Illustrator 24.1.2, SVG Export Plug-In . SVG Version: 6.00 Build 0)  -->
<svg version="1.1" id="Camada_1" xmlns="http://www.w3.org/2000/svg" xmlns:xlink="http://www.w3.org/1999/xlink" x="0px" y="0px"
	 viewBox="0 0 78.4 103.1" style="enable-background:new 0 0 78.4 103.1;" xml:space="preserve">
<path d="M8.4,78.3c0.4-0.1,0.8-0.6,1.1-1.1c7.4,16.6,18.3,24.5,29.8,24.5c11.6,0,22.4-7.9,29.8-24.5c0.3,0.6,0.7,1,1.1,1.1
	c1.9,0.6,4.8-3.2,6.9-10.5s1.8-14.6-1-15.5C80.4,21.1,60.6,0.4,39.2,1.8C17.9,0.4-1.9,21.1,2.4,52.3c-2.8,0.8-3.1,8.1-1,15.5
	C3.6,75.1,6.4,78.9,8.4,78.3z M67.6,54.2c0.1,1.6-0.5,3.1-1.7,4.4c-1.5,1.7-3.8,2.7-6.2,2.8h-4.3c-2.3,0-4.5-1-6-2.6
	c-1.3-1.4-1.9-3.1-1.8-4.8l0.1-2.4c0,0,0,0,0-0.1c6.4-1.8,13.4-1.7,19.9,0.2l0,0V54.2z M45,47.8l-1.2,0.4l-0.3,1.3
	c-0.1,0.5-0.2,1.1-0.2,1.6h-7.9c-0.1-0.5-0.1-1-0.2-1.4l-0.3-1.2l-1.2-0.4c-8.2-2.8-17.1-2.9-25.3-0.3L7.8,48
	c-0.1-1.1-0.1-2.2-0.2-3.3c0.9-0.3,2.2-1.5,2.7-5.5c0.4-3.1,0.2-6.8,0.5-10.1c3-2.6,7.8-6.4,13.4-6.3c3,1.7,5.7,2,8.2,3.6
	c2.3,1.4,11.4,1.4,13.6,0c2.5-1.6,5.2-2,8.2-3.6c5.6-0.1,10.4,3.7,13.4,6.3c0.3,3.2,0.1,6.9,0.5,10.1c0.5,4.1,1.8,5.2,2.7,5.5
	c0,1.2-0.1,2.3-0.2,3.6l-0.5-0.2C62.1,45.2,53.1,45.1,45,47.8z M31.1,54.2c0.1,1.6-0.5,3.1-1.7,4.4c-1.5,1.7-3.8,2.7-6.2,2.8h-4.3
	c-2.3,0-4.5-1-6-2.6c-1.3-1.4-1.9-3.1-1.8-4.8l0.1-2.4c0,0,0,0,0-0.1c6.4-1.8,13.4-1.7,19.9,0.2l0,0L31.1,54.2z M39.3,93.9
	C27.6,93.9,16.7,84,10.7,63c2.2,1.8,5.1,2.9,8.1,2.9l0,0l4.4-0.1c3.6-0.2,7-1.7,9.3-4.2c1.5-1.6,2.4-3.5,2.7-5.5h7.9
	c0.4,2.1,1.3,4.1,2.9,5.8c2.3,2.5,5.7,3.9,9.2,4l4.5-0.1c3-0.1,5.9-1.2,8.1-3C62,83.9,51.1,93.9,39.3,93.9z"/>
</svg>
