<?xml version="1.0" encoding="utf-8"?>
<!-- Generator: Adobe Illustrator 24.1.2, SVG Export Plug-In . SVG Version: 6.00 Build 0)  -->
<svg version="1.1" id="Camada_1" xmlns="http://www.w3.org/2000/svg" xmlns:xlink="http://www.w3.org/1999/xlink" x="0px" y="0px"
	 viewBox="0 0 19.1 24" style="enable-background:new 0 0 19.1 24;" xml:space="preserve">
<style type="text/css">
	.st0{fill:none;}
</style>
<path class="st0" d="M-2.8,0h24v24h-24V0z"/>
<path d="M15.7,21.3c-0.2,0-0.4-0.1-0.6-0.3l-5.6-5.8L4,21.1c-0.3,0.3-0.8,0.3-1.1,0c-0.2-0.2-0.2-0.4-0.3-0.6V3.8
	C2.6,3.4,2.9,3,3.4,3h12.3c0.5,0,0.8,0.4,0.8,0.8v16.7C16.5,21,16.1,21.3,15.7,21.3L15.7,21.3z M9.5,13.3c0.2,0,0.4,0.1,0.6,0.3
	l4.8,5V4.6H4.2v13.9l4.8-5C9.1,13.4,9.3,13.3,9.5,13.3z"/>
</svg>
