<?xml version="1.0" encoding="utf-8"?>
<!-- Generator: Adobe Illustrator 24.1.2, SVG Export Plug-In . SVG Version: 6.00 Build 0)  -->
<svg version="1.1" id="Camada_1" xmlns="http://www.w3.org/2000/svg" xmlns:xlink="http://www.w3.org/1999/xlink" x="0px" y="0px"
	 viewBox="0 0 19.2 24" style="enable-background:new 0 0 19.2 24;" xml:space="preserve">
<g>
	<path d="M14.2,8.4h0.9c1,0,1.8,0.8,1.8,1.8v9.1c0,1-0.8,1.8-1.8,1.8H4.2c-1,0-1.8-0.8-1.8-1.8v-9.1c0-1,0.8-1.8,1.8-1.8h0.9
		C5.6,8.4,6,8.9,6,9.4s-0.4,0.9-0.9,0.9H4.2v9.1h10.9v-9.1h-0.9c-0.5,0-0.9-0.4-0.9-0.9S13.7,8.4,14.2,8.4z M8.9,2.4
		c0.2-0.2,0.4-0.3,0.7-0.3c0.3,0,0.5,0.1,0.7,0.3l2.5,2.5c0.4,0.4,0.4,0.9,0,1.3c-0.4,0.4-0.9,0.4-1.3,0l-1-1v8.7
		c0,0.5-0.4,0.9-0.9,0.9s-0.9-0.4-0.9-0.9V5.2l-1,1c-0.4,0.4-0.9,0.4-1.3,0S6,5.3,6.4,4.9L8.9,2.4z"/>
</g>
</svg>
