<?xml version="1.0" encoding="utf-8"?>
<!-- Generator: Adobe Illustrator 24.1.2, SVG Export Plug-In . SVG Version: 6.00 Build 0)  -->
<svg version="1.1" id="Camada_1" xmlns="http://www.w3.org/2000/svg" xmlns:xlink="http://www.w3.org/1999/xlink" x="0px" y="0px"
	 viewBox="0 0 77.1 92.2" style="enable-background:new 0 0 77.1 92.2;" xml:space="preserve">
<style type="text/css">
	.st0{fill:#EA6B66;}
</style>
<path class="st0" d="M28.4,56.1c-0.3,0-0.6,0-0.9-0.1C27.8,56,28.1,56.1,28.4,56.1z"/>
<path class="st0" d="M26.1,55.4C26.1,55.4,26.1,55.4,26.1,55.4C26.1,55.4,26.1,55.4,26.1,55.4z"/>
<path class="st0" d="M27.3,55.9c-0.2,0-0.4-0.1-0.6-0.2C26.9,55.8,27.1,55.9,27.3,55.9z"/>
<path class="st0" d="M21.4,50.6v-0.1l0,0l2.8-24.8c0-1.2,0.3-2.3,0.9-3.2c-0.6-0.3-1.3-0.4-1.9-0.4H8.5c-2.6,0-4.7,2.1-4.7,4.7
	L1.1,50.4c0,2.6,2.1,4.7,4.7,4.7h1.5l3.6,30.4c0,1.6,1.3,2.6,2.9,2.6h4.1c1.6,0,2.9-1,2.9-2.6l3.5-29.3
	C22.5,54.9,21.4,52.9,21.4,50.6z"/>
<circle class="st0" cx="15.9" cy="11.4" r="7.9"/>
<path class="st0" d="M73.2,26.7c0-2.6-2.1-4.7-4.7-4.7H53.8c-0.4,0-0.8,0-1.2,0.1c0.6,1,1,2.2,1.1,3.5l2.8,24.7l-0.1,0.1v0.1
	c0,2.6-1.4,5-3.6,6.1l3.4,28.6c0,1.6,1.3,2.6,2.9,2.6h4.1c1.6,0,2.9-1.1,2.9-2.6l3.6-30.4h1.5c2.6,0,4.7-2.1,4.7-4.7L73.2,26.7z"/>
<circle class="st0" cx="61.2" cy="11.4" r="7.9"/>
<path class="st0" d="M54.6,51l-2.8-25.2c0-2.8-2.2-4.8-5-4.8H31.2c-2.8,0-5,2.1-5,4.9l-2.8,24.9c0,1.9,1,3.6,2.6,4.5c0,0,0,0,0,0
	c0.2,0.1,0.4,0.2,0.7,0.3c0.2,0.1,0.4,0.1,0.6,0.2c0.1,0,0.1,0,0.2,0c0.3,0.1,0.6,0.1,0.9,0.1H30l3.8,32.2c0,1.7,1.4,2.8,3,2.8h4.4
	c1.7,0,3-1.2,3-2.8l3.8-32.2h1.6C52.4,56.1,54.6,53.7,54.6,51z"/>
<circle class="st0" cx="39" cy="9.4" r="8.3"/>
</svg>
