<?xml version="1.0" encoding="utf-8"?>
<!-- Generator: Adobe Illustrator 24.1.2, SVG Export Plug-In . SVG Version: 6.00 Build 0)  -->
<svg version="1.1" id="Camada_1" xmlns="http://www.w3.org/2000/svg" xmlns:xlink="http://www.w3.org/1999/xlink" x="0px" y="0px"
	 viewBox="0 0 339 339.2" style="enable-background:new 0 0 339 339.2;" xml:space="preserve">
<style type="text/css">
	.st0{fill:#FDFDFD;}
	.st1{fill-rule:evenodd;clip-rule:evenodd;fill:#FDFDFD;}
</style>
<g>
	<path class="st0" d="M37,37c49-49,129-49,178,0c45,45,50,117,11,166l3,1c7,2,9,10,4,15l-14,14c-5,5-13,3-15-4l-1-3
		c-49,39-121,34-166-11C-12,166-12,86,37,37z M58,58c-38,38-38,99,0,136c38,38,99,38,136,0c38-37,38-98,0-136C157,20,96,20,58,58z"
		/>
	<path class="st1" d="M222,235l13-13c3-2,6-3,10-2c4,0,8,3,11,6l78,87c6,7,7,15,2,19l-4,4c-4,5-12,4-19-2l-87-78c-3-3-6-7-6-11
		C219,241,220,238,222,235z"/>
</g>
</svg>
