<?xml version="1.0" encoding="utf-8"?>
<!-- Generator: Adobe Illustrator 24.2.1, SVG Export Plug-In . SVG Version: 6.00 Build 0)  -->
<svg version="1.1" id="Camada_1" xmlns="http://www.w3.org/2000/svg" xmlns:xlink="http://www.w3.org/1999/xlink" x="0px" y="0px"
	 viewBox="0 0 80 80" style="enable-background:new 0 0 80 80;" xml:space="preserve">
<style type="text/css">
	.st0{fill:#F2F2F2;}
</style>
<g>
	<path class="st0" d="M40,1.2c21.4,0,38.8,17.4,38.8,38.8S61.4,78.8,40,78.8S1.2,61.4,1.2,40S18.6,1.2,40,1.2z M40,8.7
		C22.7,8.7,8.7,22.7,8.7,40s14,31.3,31.3,31.3s31.3-14,31.3-31.3S57.3,8.7,40,8.7L40,8.7z"/>
</g>
<g>
	<path class="st0" d="M40,46l18.7-18.7c1.2-1.2,3.2-1.2,4.4,0c1.2,1.2,1.2,3.2,0,4.4l-21,21c-0.6,0.6-1.4,0.9-2.2,0.9
		s-1.6-0.3-2.2-0.9l-21-21c-1.2-1.2-1.2-3.2,0-4.4c1.2-1.2,3.2-1.2,4.4,0L40,46L40,46z"/>
</g>
</svg>
