<?xml version="1.0" encoding="utf-8"?>
<!-- Generator: Adobe Illustrator 24.2.1, SVG Export Plug-In . SVG Version: 6.00 Build 0)  -->
<svg version="1.1" id="Camada_1" xmlns="http://www.w3.org/2000/svg" xmlns:xlink="http://www.w3.org/1999/xlink" x="0px" y="0px"
	 viewBox="0 0 80 80" style="enable-background:new 0 0 80 80;" xml:space="preserve">
<style type="text/css">
	.st0{fill:#F2F2F2;}
</style>
<g>
	<path class="st0" d="M40,78.8C18.6,78.8,1.2,61.4,1.2,40S18.6,1.2,40,1.2S78.8,18.6,78.8,40S61.4,78.8,40,78.8z M40,71.3
		c17.3,0,31.3-14,31.3-31.3S57.3,8.7,40,8.7S8.7,22.7,8.7,40S22.7,71.3,40,71.3L40,71.3z"/>
</g>
<g>
	<path class="st0" d="M40,34L21.3,52.7c-1.2,1.2-3.2,1.2-4.4,0s-1.2-3.2,0-4.4l21-21c0.6-0.6,1.4-0.9,2.2-0.9s1.6,0.3,2.2,0.9l21,21
		c1.2,1.2,1.2,3.2,0,4.4c-1.2,1.2-3.2,1.2-4.4,0L40,34L40,34z"/>
</g>
</svg>
