<?xml version="1.0" encoding="utf-8"?>
<!-- Generator: Adobe Illustrator 24.2.1, SVG Export Plug-In . SVG Version: 6.00 Build 0)  -->
<svg version="1.1" id="Camada_1" xmlns="http://www.w3.org/2000/svg" xmlns:xlink="http://www.w3.org/1999/xlink" x="0px" y="0px"
	 viewBox="0 0 80 80" style="enable-background:new 0 0 80 80;" xml:space="preserve">
<style type="text/css">
	.st0{fill:#BA083B;}
</style>
<g>
	<g>
		<path class="st0" d="M40,1c21.5,0,39,17.5,39,39S61.5,79,40,79S1,61.5,1,40C1,18.5,18.5,1,40,1z M40,8.6C22.6,8.6,8.6,22.6,8.6,40
			S22.6,71.4,40,71.4S71.4,57.4,71.4,40S57.4,8.6,40,8.6L40,8.6z"/>
	</g>
</g>
<g>
	<path class="st0" d="M58.2,45.5H21.8c-1,0-1.8-0.8-1.8-1.8v-7.5c0-1,0.8-1.8,1.8-1.8h36.5c1,0,1.8,0.8,1.8,1.8v7.5
		C60,44.7,59.2,45.5,58.2,45.5z"/>
</g>
</svg>
