<?xml version="1.0" encoding="utf-8"?>
<!-- Generator: Adobe Illustrator 24.2.1, SVG Export Plug-In . SVG Version: 6.00 Build 0)  -->
<svg version="1.1" id="Camada_1" xmlns="http://www.w3.org/2000/svg" xmlns:xlink="http://www.w3.org/1999/xlink" x="0px" y="0px"
	 viewBox="0 0 80 80" style="enable-background:new 0 0 80 80;" xml:space="preserve">
<style type="text/css">
	.st0{fill:#CCB7D8;}
</style>
<g>
	<path class="st0" d="M40,1.2c21.4,0,38.8,17.4,38.8,38.8S61.4,78.8,40,78.8S1.2,61.4,1.2,40C1.2,18.6,18.6,1.2,40,1.2z M18.1,41.7
		c-3.5-3.5,1.8-8.8,5.3-5.3l10.9,10.9l22.4-22.4c3.5-3.5,8.8,1.8,5.3,5.3l-25,25c-1.5,1.5-3.9,1.5-5.3,0L18.1,41.7L18.1,41.7z
		 M40,8.7C22.7,8.7,8.7,22.7,8.7,40s14,31.3,31.3,31.3s31.3-14,31.3-31.3S57.3,8.7,40,8.7L40,8.7z"/>
</g>
</svg>
