<?xml version="1.0" encoding="utf-8"?>
<!-- Generator: Adobe Illustrator 24.1.2, SVG Export Plug-In . SVG Version: 6.00 Build 0)  -->
<svg version="1.1" id="Camada_1" xmlns="http://www.w3.org/2000/svg" xmlns:xlink="http://www.w3.org/1999/xlink" x="0px" y="0px"
	 viewBox="0 0 100 99.1" style="enable-background:new 0 0 100 99.1;" xml:space="preserve">
<style type="text/css">
	.st0{fill:#F22929;}
</style>
<desc>Created with Sketch.</desc>
<g>
	<path class="st0" d="M86,16.2v4.5c0,1.2-1,2.3-2.3,2.3H16.3C15,23,14,22,14,20.7v-4.5c0-1.2,1-2.2,2.3-2.2h20.2V9.5
		C36.5,7,38.5,5,41,5h18c2.5,0,4.5,2,4.5,4.5V14h20.2C85,14,86,15,86,16.2z M22.4,86.6c0.3,4.7,4.3,8.4,9,8.4h37.3
		c4.7,0,8.7-3.6,9-8.4L81.5,32h-63L22.4,86.6z"/>
</g>
</svg>
