<?xml version="1.0" encoding="utf-8"?>
<!-- Generator: Adobe Illustrator 24.1.2, SVG Export Plug-In . SVG Version: 6.00 Build 0)  -->
<svg version="1.1" id="Camada_1" xmlns="http://www.w3.org/2000/svg" xmlns:xlink="http://www.w3.org/1999/xlink" x="0px" y="0px"
	 viewBox="0 0 100 100.6" style="enable-background:new 0 0 100 100.6;" xml:space="preserve">
<g>
	<path d="M50,0.2c-27.6,0-50,22.4-50,50c0,27.6,22.4,50,50,50c27.6,0,50-22.4,50-50C100,22.6,77.6,0.2,50,0.2z M50,22.2
		c11.1,0,20.1,9,20.1,20.1c0,9-6.9,18.6-12.8,24c-3.7,3.4-6.3,4.5-7.1,4.5C46.4,70.5,30,56.4,30,42.3C30,31.2,39,22.2,50,22.2z
		 M50,78.2c-14.1,0-21.8-3.6-21.8-5.5c0-1.3,3.6-3.6,11.6-4.8c0.1,0,0.3-0.1,0.4-0.1c3.8,3.6,7.4,5.8,9.7,6h0.3c3,0,7.4-3.7,9.1-5.3
		c0.2-0.2,0.4-0.4,0.7-0.6c0.1,0,0.2,0,0.2,0.1c8,1.2,11.6,3.5,11.6,4.8C71.8,74.5,64.1,78.2,50,78.2z"/>
	<path d="M50,49.4c5.3,0,9.6-4.3,9.6-9.6s-4.3-9.6-9.6-9.6c-5.3,0-9.6,4.3-9.6,9.6C40.5,45.2,44.8,49.4,50,49.4z"/>
</g>
</svg>
