<?xml version="1.0" encoding="utf-8"?>
<!-- Generator: Adobe Illustrator 24.1.2, SVG Export Plug-In . SVG Version: 6.00 Build 0)  -->
<svg version="1.1" id="Camada_1" xmlns="http://www.w3.org/2000/svg" xmlns:xlink="http://www.w3.org/1999/xlink" x="0px" y="0px"
	 viewBox="0 0 300 54" style="enable-background:new 0 0 300 54;" xml:space="preserve">
<g>
	<polygon points="13.9,33 1.2,20.7 18.8,18.1 26.6,2.1 34.5,18 52.1,20.5 39.4,33 42.5,50.5 26.7,42.3 11,50.6 	"/>
	<path d="M26.6,3.2L33.9,18l0.2,0.5l0.5,0.1L51,20.9L39.2,32.4l-0.4,0.4l0.1,0.5l2.8,16.3l-14.6-7.6l-0.5-0.2l-0.5,0.2l-14.6,7.7
		l2.8-16.3l0.1-0.5l-0.4-0.4L2.3,21l16.3-2.4l0.5-0.1l0.2-0.5L26.6,3.2 M26.6,1l-8.2,16.6L0.1,20.3l13.3,12.9l-3.1,18.3l16.4-8.7
		l16.4,8.6l-3.2-18.3l13.2-13l-18.3-2.6L26.6,1L26.6,1z"/>
</g>
<g>
	<polygon points="74.6,33 61.9,20.7 79.4,18.1 87.3,2.1 95.2,18 112.8,20.5 100.1,33 103.1,50.5 87.4,42.3 71.6,50.6 	"/>
	<path d="M87.3,3.2L94.6,18l0.2,0.5l0.5,0.1l16.3,2.3L99.9,32.4l-0.4,0.4l0.1,0.5l2.8,16.3l-14.6-7.6l-0.5-0.2l-0.5,0.2l-14.6,7.7
		l2.8-16.3l0.1-0.5l-0.4-0.4L62.9,21l16.3-2.4l0.5-0.1L80,18L87.3,3.2 M87.3,1l-8.2,16.6l-18.3,2.7l13.3,12.9L71,51.5l16.4-8.7
		l16.4,8.6l-3.2-18.3l13.2-13l-18.3-2.6L87.3,1L87.3,1z"/>
</g>
<g>
	<polygon points="135.3,33 122.5,20.7 140.1,18.1 147.9,2.1 155.8,18 173.4,20.5 160.7,33 163.8,50.5 148,42.3 132.3,50.6 	"/>
	<path d="M147.9,3.2l7.3,14.8l0.2,0.5l0.5,0.1l16.3,2.3l-11.8,11.5l-0.4,0.4l0.1,0.5l2.8,16.3l-14.6-7.6l-0.5-0.2l-0.5,0.2L133,49.6
		l2.8-16.3l0.1-0.5l-0.4-0.4L123.6,21l16.3-2.4l0.5-0.1l0.2-0.5L147.9,3.2 M147.9,1l-8.2,16.6l-18.3,2.7l13.3,12.9l-3.1,18.3
		l16.4-8.7l16.4,8.6l-3.2-18.3l13.2-13l-18.3-2.6L147.9,1L147.9,1z"/>
</g>
<g>
	<polygon points="195.9,33 183.2,20.7 200.8,18.1 208.6,2.1 216.5,18 234.1,20.5 221.4,33 224.5,50.5 208.7,42.3 193,50.6 	"/>
	<path d="M208.6,3.2l7.3,14.8l0.2,0.5l0.5,0.1l16.3,2.3l-11.8,11.5l-0.4,0.4l0.1,0.5l2.8,16.3l-14.6-7.6l-0.5-0.2l-0.5,0.2
		l-14.6,7.7l2.8-16.3l0.1-0.5l-0.4-0.4L184.3,21l16.3-2.4l0.5-0.1l0.2-0.5L208.6,3.2 M208.6,1l-8.2,16.6l-18.3,2.7l13.3,12.9
		l-3.1,18.3l16.4-8.7l16.4,8.6l-3.2-18.3l13.2-13l-18.3-2.6L208.6,1L208.6,1z"/>
</g>
<g>
	<path d="M269.3,3.2l7.3,14.8l0.2,0.5l0.5,0.1l16.3,2.3l-11.8,11.5l-0.4,0.4l0.1,0.5l2.8,16.3l-14.6-7.6l-0.5-0.2l-0.5,0.2
		l-14.6,7.7l2.8-16.3l0.1-0.5l-0.4-0.4L244.9,21l16.3-2.4l0.5-0.1L262,18L269.3,3.2 M269.3,1l-8.2,16.6l-18.3,2.7l13.3,12.9
		L253,51.5l16.4-8.7l16.4,8.6l-3.2-18.3l13.2-13l-18.3-2.6L269.3,1L269.3,1z"/>
</g>
</svg>
