<svg id="Camada_1" data-name="Camada 1" xmlns="http://www.w3.org/2000/svg" viewBox="0 0 332.4 420"><defs><style>.cls-1{fill:#f5f5f5;}</style></defs><path class="cls-1" d="M219.4,362.2a18,18,0,0,0,18-18v-139a18,18,0,0,0-36,0v139A18,18,0,0,0,219.4,362.2Z" transform="translate(-8.8 -5)"/><path class="cls-1" d="M130.6,362.2a18,18,0,0,0,18-18v-139a18,18,0,0,0-36,0v139A18,18,0,0,0,130.6,362.2Z" transform="translate(-8.8 -5)"/><path class="cls-1" d="M8.8,105.8v50a18,18,0,0,0,18,18H37.4V367a58.07,58.07,0,0,0,58,58H254.6a58.07,58.07,0,0,0,58-58V173.8h10.6a18,18,0,0,0,18-18v-50a48.05,48.05,0,0,0-48-48H252.4V53a48.05,48.05,0,0,0-48-48H145.6a48.05,48.05,0,0,0-48,48v4.8H56.8A48.05,48.05,0,0,0,8.8,105.8ZM276.6,367a22,22,0,0,1-22,22H95.4a22,22,0,0,1-22-22V173.8H276.6V367ZM133.6,53a12,12,0,0,1,12-12h58.8a12,12,0,0,1,12,12v4.8H133.6V53ZM44.8,105.8a12,12,0,0,1,12-12H293.2a12,12,0,0,1,12,12v32H44.8Z" transform="translate(-8.8 -5)"/></svg>