<?xml version="1.0" encoding="utf-8"?>
<!-- Generator: Adobe Illustrator 24.1.2, SVG Export Plug-In . SVG Version: 6.00 Build 0)  -->
<svg version="1.1" id="Camada_1" xmlns="http://www.w3.org/2000/svg" xmlns:xlink="http://www.w3.org/1999/xlink" x="0px" y="0px"
	 viewBox="0 0 32 32" style="enable-background:new 0 0 32 32;" xml:space="preserve">
<style type="text/css">
	.st0{fill-rule:evenodd;clip-rule:evenodd;fill:#F5F5F5;}
</style>
<g>
	<path class="st0" d="M19.2,26.7V5.6c0-2.4,1.9-4.3,4.3-4.3l0,0c2.4,0,4.3,1.9,4.3,4.3v21.1c0,2.4-1.9,4.3-4.3,4.3l0,0
		C21.1,31,19.2,29.1,19.2,26.7z"/>
	<path class="st0" d="M19.2,26.7V5.6c0-2.4,1.9-4.3,4.3-4.3l0,0c2.4,0,4.3,1.9,4.3,4.3v21.1c0,2.4-1.9,4.3-4.3,4.3l0,0
		C21.1,31,19.2,29.1,19.2,26.7z"/>
</g>
<g>
	<path class="st0" d="M3.9,26.7V5.6c0-2.4,1.9-4.3,4.3-4.3l0,0c2.4,0,4.3,1.9,4.3,4.3v21.1c0,2.4-1.9,4.3-4.3,4.3l0,0
		C5.8,31,3.9,29.1,3.9,26.7z"/>
	<path class="st0" d="M3.9,26.7V5.6c0-2.4,1.9-4.3,4.3-4.3l0,0c2.4,0,4.3,1.9,4.3,4.3v21.1c0,2.4-1.9,4.3-4.3,4.3l0,0
		C5.8,31,3.9,29.1,3.9,26.7z"/>
</g>
</svg>
