<svg id="Camada_1" data-name="Camada 1" xmlns="http://www.w3.org/2000/svg" viewBox="0 0 90 90"><defs><style>.cls-1{fill:#f5f5f5;}</style></defs><path class="cls-1" d="M92.53,77.68,71.88,57A39.92,39.92,0,0,1,60,69L80.6,89.61A8.44,8.44,0,1,0,92.53,77.68Z" transform="translate(-5 -2.09)"/><path class="cls-1" d="M72.5,35.84A33.75,33.75,0,1,0,38.75,69.59,33.75,33.75,0,0,0,72.5,35.84ZM38.75,61.15A25.32,25.32,0,1,1,64.06,35.84,25.34,25.34,0,0,1,38.75,61.15Z" transform="translate(-5 -2.09)"/><path class="cls-1" d="M19.06,35.84h5.63A14.08,14.08,0,0,1,38.75,21.77V16.15A19.72,19.72,0,0,0,19.06,35.84Z" transform="translate(-5 -2.09)"/></svg>