<?xml version="1.0" encoding="utf-8"?>
<!-- Generator: Adobe Illustrator 24.1.2, SVG Export Plug-In . SVG Version: 6.00 Build 0)  -->
<svg version="1.1" id="Camada_1" xmlns="http://www.w3.org/2000/svg" xmlns:xlink="http://www.w3.org/1999/xlink" x="0px" y="0px"
	 viewBox="0 0 307 43.9" style="enable-background:new 0 0 307 43.9;" xml:space="preserve">
<style type="text/css">
	.st0{fill:#FFFFFF;stroke:#F52D51;stroke-miterlimit:10;}
	.st1{fill:#FFFFFF;}
</style>
<g>
	<path class="st0" d="M272.2,39.3c3.7,3.7,9.8,3.7,13.6,0l1.9-1.9l1.9,1.9c1.8,1.9,4.3,2.8,6.8,2.8c2.4,0,4.9-0.9,6.8-2.8
		c3.7-3.7,3.7-9.7,0-13.4l-14.7-14.4c-0.4-0.4-1.1-0.4-1.6,0c-4.9,4.8-9.8,9.6-14.7,14.4C268.5,29.6,268.5,35.6,272.2,39.3z"/>
	<g>
		<path class="st1" d="M19.9,41.7c-0.7,0-1.3-0.1-1.6-0.3c-0.4-0.2-0.7-0.6-0.9-1.2l-0.5-1.4c-0.6,0.5-1.3,1-1.9,1.4
			c-0.6,0.4-1.2,0.8-1.8,1c-0.6,0.3-1.3,0.5-2,0.6c-0.7,0.1-1.5,0.2-2.4,0.2c-1.2,0-2.2-0.2-3.2-0.5c-1-0.3-1.8-0.8-2.4-1.3
			c-0.7-0.6-1.2-1.3-1.5-2.2C1.1,37.2,1,36.1,1,35c0-0.9,0.2-1.8,0.7-2.8c0.5-1,1.3-1.8,2.4-2.6c1.1-0.8,2.7-1.4,4.6-2
			s4.4-0.8,7.3-0.8v-1.1c0-1.5-0.3-2.6-0.9-3.3c-0.6-0.7-1.5-1-2.6-1c-0.9,0-1.6,0.1-2.2,0.3c-0.6,0.2-1.1,0.4-1.5,0.7
			c-0.5,0.2-0.9,0.5-1.3,0.7c-0.4,0.2-0.9,0.3-1.5,0.3c-0.5,0-1-0.1-1.3-0.4c-0.4-0.3-0.7-0.6-0.9-1l-1.4-2.4c1.5-1.4,3.3-2.4,5.1-3
			s3.9-1,6.1-1c1.5,0,2.9,0.3,4.2,0.8c1.2,0.5,2.3,1.2,3.2,2.1c0.9,0.9,1.5,2,2,3.2c0.5,1.2,0.7,2.6,0.7,4v16H19.9z M11.1,37
			c1,0,1.9-0.2,2.6-0.5c0.7-0.3,1.5-0.9,2.2-1.7v-3.5c-1.5,0-2.8,0.1-3.8,0.3c-1,0.2-1.8,0.4-2.3,0.7c-0.6,0.3-1,0.6-1.2,1
			c-0.2,0.4-0.3,0.8-0.3,1.2c0,0.9,0.2,1.5,0.7,1.9C9.5,36.8,10.2,37,11.1,37z"/>
		<path class="st1" d="M44.4,21.7c-0.2,0.3-0.4,0.5-0.6,0.7c-0.2,0.1-0.5,0.2-0.9,0.2c-0.4,0-0.7-0.1-1.1-0.2
			c-0.4-0.2-0.8-0.3-1.2-0.5c-0.4-0.2-0.9-0.3-1.4-0.5c-0.5-0.2-1.1-0.2-1.8-0.2c-1,0-1.7,0.2-2.2,0.6c-0.5,0.4-0.8,0.9-0.8,1.5
			c0,0.5,0.2,0.9,0.5,1.2c0.3,0.3,0.8,0.6,1.3,0.8c0.6,0.2,1.2,0.5,1.9,0.7c0.7,0.2,1.4,0.5,2.2,0.7c0.7,0.3,1.5,0.6,2.2,0.9
			c0.7,0.4,1.3,0.8,1.9,1.3c0.6,0.5,1,1.1,1.3,1.9c0.3,0.7,0.5,1.6,0.5,2.7c0,1.3-0.2,2.4-0.7,3.5c-0.5,1.1-1.1,2-2.1,2.8
			c-0.9,0.8-2,1.4-3.4,1.8c-1.3,0.4-2.9,0.6-4.6,0.6c-0.9,0-1.7-0.1-2.6-0.2c-0.9-0.2-1.7-0.4-2.5-0.7c-0.8-0.3-1.6-0.6-2.3-1
			c-0.7-0.4-1.3-0.8-1.8-1.2l1.8-2.8c0.2-0.3,0.5-0.6,0.8-0.8c0.3-0.2,0.7-0.3,1.2-0.3c0.4,0,0.8,0.1,1.2,0.3
			c0.4,0.2,0.7,0.4,1.1,0.6c0.4,0.2,0.9,0.4,1.4,0.6c0.6,0.2,1.2,0.3,2.1,0.3c0.6,0,1.1-0.1,1.5-0.2c0.4-0.1,0.7-0.3,1-0.5
			c0.2-0.2,0.4-0.5,0.5-0.7s0.2-0.5,0.2-0.8c0-0.5-0.2-0.9-0.5-1.3c-0.3-0.3-0.8-0.6-1.4-0.9c-0.6-0.2-1.2-0.5-1.9-0.7
			c-0.7-0.2-1.4-0.4-2.2-0.7c-0.7-0.3-1.5-0.6-2.2-1c-0.7-0.4-1.4-0.8-1.9-1.4c-0.6-0.6-1-1.3-1.4-2.1c-0.3-0.8-0.5-1.8-0.5-3
			c0-1.1,0.2-2.1,0.6-3.1c0.4-1,1-1.8,1.9-2.6c0.8-0.7,1.9-1.3,3.2-1.8c1.3-0.4,2.7-0.7,4.4-0.7c0.9,0,1.8,0.1,2.7,0.2
			c0.9,0.2,1.7,0.4,2.4,0.7c0.8,0.3,1.4,0.6,2.1,1c0.6,0.4,1.2,0.8,1.7,1.3L44.4,21.7z"/>
		<path class="st1" d="M59.5,42.1c-1.2,0-2.3-0.2-3.2-0.5c-0.9-0.4-1.7-0.9-2.3-1.5c-0.6-0.7-1.1-1.4-1.4-2.4
			c-0.3-0.9-0.5-2-0.5-3.1V21.4h-2.2c-0.4,0-0.7-0.1-1-0.4c-0.3-0.3-0.4-0.6-0.4-1.1v-3l4.1-0.8L54,9.8c0.2-0.8,0.8-1.2,1.7-1.2h4
			v7.5h6.2v5.2h-6.2v12.7c0,0.6,0.1,1.1,0.4,1.5c0.3,0.4,0.7,0.6,1.2,0.6c0.3,0,0.5,0,0.7-0.1c0.2-0.1,0.4-0.1,0.5-0.2
			c0.1-0.1,0.3-0.1,0.4-0.2c0.1-0.1,0.3-0.1,0.4-0.1c0.2,0,0.4,0.1,0.6,0.2c0.1,0.1,0.3,0.3,0.4,0.5l2.3,3.6c-1,0.7-2.1,1.3-3.3,1.7
			C62.1,41.9,60.8,42.1,59.5,42.1z"/>
		<path class="st1" d="M70.3,41.7V16.1h4.5c0.4,0,0.7,0,1,0.1c0.3,0.1,0.5,0.2,0.6,0.3c0.2,0.1,0.3,0.3,0.4,0.6
			c0.1,0.2,0.2,0.5,0.2,0.8l0.4,2.4c0.9-1.4,2-2.6,3.2-3.4c1.2-0.8,2.4-1.3,3.8-1.3c1.2,0,2.1,0.3,2.8,0.8l-1,5.6
			c-0.1,0.3-0.2,0.6-0.4,0.7c-0.2,0.1-0.5,0.2-0.8,0.2c-0.3,0-0.6,0-1-0.1c-0.4-0.1-0.9-0.1-1.4-0.1c-2,0-3.6,1.1-4.7,3.2v15.7H70.3
			z"/>
		<path class="st1" d="M102,15.7c1.9,0,3.7,0.3,5.3,0.9c1.6,0.6,3,1.5,4.1,2.6c1.1,1.1,2,2.5,2.7,4.1c0.6,1.6,1,3.4,1,5.5
			c0,2-0.3,3.9-1,5.5c-0.6,1.6-1.5,3-2.7,4.2c-1.1,1.1-2.5,2-4.1,2.6c-1.6,0.6-3.4,0.9-5.3,0.9c-2,0-3.7-0.3-5.3-0.9
			c-1.6-0.6-3-1.5-4.1-2.6c-1.2-1.1-2.1-2.5-2.7-4.2s-0.9-3.5-0.9-5.5c0-2,0.3-3.8,0.9-5.5c0.6-1.6,1.5-3,2.7-4.1
			c1.2-1.1,2.5-2,4.1-2.6C98.3,16,100.1,15.7,102,15.7z M102,36.4c1.8,0,3.1-0.6,3.9-1.9c0.8-1.2,1.2-3.1,1.2-5.7
			c0-2.5-0.4-4.4-1.2-5.7c-0.8-1.2-2.1-1.9-3.9-1.9c-1.8,0-3.1,0.6-4,1.9c-0.8,1.2-1.3,3.1-1.3,5.7c0,2.5,0.4,4.4,1.3,5.7
			C98.9,35.8,100.2,36.4,102,36.4z"/>
		<path class="st1" d="M119.3,41.7V16.1h4.7c0.5,0,0.9,0.1,1.2,0.3c0.3,0.2,0.5,0.5,0.7,1l0.4,1.4c0.4-0.4,0.9-0.9,1.3-1.2
			c0.5-0.4,1-0.7,1.5-1c0.5-0.3,1.1-0.5,1.7-0.6c0.6-0.2,1.3-0.2,2-0.2c1.5,0,2.8,0.4,3.8,1.2c1,0.8,1.8,1.9,2.3,3.2
			c0.4-0.8,1-1.5,1.6-2c0.6-0.6,1.3-1,2-1.4c0.7-0.3,1.5-0.6,2.3-0.8c0.8-0.2,1.6-0.2,2.4-0.2c1.5,0,2.8,0.2,3.9,0.7
			c1.1,0.4,2.1,1.1,2.9,1.9c0.8,0.8,1.3,1.9,1.7,3.1c0.4,1.2,0.6,2.6,0.6,4.1v16.3h-7.7V25.4c0-2.6-1.1-4-3.4-4c-1,0-1.9,0.3-2.6,1
			c-0.7,0.7-1,1.7-1,2.9v16.3H134V25.4c0-1.5-0.3-2.5-0.9-3.1c-0.6-0.6-1.4-0.9-2.5-0.9c-0.7,0-1.3,0.2-2,0.5
			c-0.6,0.3-1.2,0.7-1.7,1.3v18.5H119.3z"/>
		<path class="st1" d="M179.4,41.7c-0.7,0-1.3-0.1-1.6-0.3c-0.4-0.2-0.7-0.6-0.9-1.2l-0.5-1.4c-0.6,0.5-1.3,1-1.9,1.4
			c-0.6,0.4-1.2,0.8-1.8,1c-0.6,0.3-1.3,0.5-2,0.6c-0.7,0.1-1.5,0.2-2.4,0.2c-1.2,0-2.2-0.2-3.2-0.5c-1-0.3-1.8-0.8-2.4-1.3
			c-0.7-0.6-1.2-1.3-1.5-2.2c-0.4-0.9-0.5-1.9-0.5-3.1c0-0.9,0.2-1.8,0.7-2.8c0.5-1,1.3-1.8,2.4-2.6c1.1-0.8,2.7-1.4,4.6-2
			s4.4-0.8,7.3-0.8v-1.1c0-1.5-0.3-2.6-0.9-3.3c-0.6-0.7-1.5-1-2.6-1c-0.9,0-1.6,0.1-2.2,0.3c-0.6,0.2-1.1,0.4-1.5,0.7
			c-0.5,0.2-0.9,0.5-1.3,0.7c-0.4,0.2-0.9,0.3-1.5,0.3c-0.5,0-1-0.1-1.3-0.4c-0.4-0.3-0.7-0.6-0.9-1l-1.4-2.4c1.5-1.4,3.3-2.4,5.1-3
			c1.9-0.7,3.9-1,6.1-1c1.5,0,2.9,0.3,4.2,0.8c1.2,0.5,2.3,1.2,3.2,2.1c0.9,0.9,1.5,2,2,3.2c0.5,1.2,0.7,2.6,0.7,4v16H179.4z
			 M170.7,37c1,0,1.9-0.2,2.6-0.5c0.7-0.3,1.5-0.9,2.2-1.7v-3.5c-1.5,0-2.8,0.1-3.8,0.3c-1,0.2-1.8,0.4-2.3,0.7
			c-0.6,0.3-1,0.6-1.2,1c-0.2,0.4-0.3,0.8-0.3,1.2c0,0.9,0.2,1.5,0.7,1.9C169,36.8,169.7,37,170.7,37z"/>
		<path class="st1" d="M197.4,42.1c-1.2,0-2.3-0.2-3.2-0.5c-0.9-0.4-1.7-0.9-2.3-1.5c-0.6-0.7-1.1-1.4-1.4-2.4
			c-0.3-0.9-0.5-2-0.5-3.1V21.4h-2.2c-0.4,0-0.7-0.1-1-0.4c-0.3-0.3-0.4-0.6-0.4-1.1v-3l4.1-0.8l1.5-6.2c0.2-0.8,0.8-1.2,1.7-1.2h4
			v7.5h6.2v5.2h-6.2v12.7c0,0.6,0.1,1.1,0.4,1.5c0.3,0.4,0.7,0.6,1.2,0.6c0.3,0,0.5,0,0.7-0.1c0.2-0.1,0.4-0.1,0.5-0.2
			c0.1-0.1,0.3-0.1,0.4-0.2c0.1-0.1,0.3-0.1,0.4-0.1c0.2,0,0.4,0.1,0.6,0.2c0.1,0.1,0.3,0.3,0.4,0.5l2.3,3.6c-1,0.7-2.1,1.3-3.3,1.7
			C200,41.9,198.7,42.1,197.4,42.1z"/>
		<path class="st1" d="M226.6,22.1c-0.2,0.3-0.5,0.5-0.7,0.7c-0.2,0.2-0.5,0.2-0.9,0.2c-0.4,0-0.7-0.1-1-0.3c-0.3-0.2-0.6-0.4-1-0.6
			c-0.4-0.2-0.8-0.4-1.3-0.6c-0.5-0.2-1.1-0.3-1.9-0.3c-0.9,0-1.7,0.2-2.4,0.5c-0.7,0.3-1.2,0.8-1.7,1.5c-0.4,0.6-0.8,1.4-1,2.4
			c-0.2,0.9-0.3,2-0.3,3.1c0,2.5,0.5,4.3,1.4,5.7c0.9,1.3,2.2,2,3.9,2c0.9,0,1.6-0.1,2.1-0.3c0.5-0.2,1-0.5,1.3-0.7
			c0.4-0.3,0.7-0.5,1-0.8c0.3-0.2,0.7-0.3,1.1-0.3c0.6,0,1.1,0.2,1.4,0.7l2.2,2.7c-0.8,0.9-1.6,1.6-2.5,2.2c-0.9,0.6-1.8,1-2.7,1.3
			c-0.9,0.3-1.8,0.5-2.8,0.7c-0.9,0.1-1.8,0.2-2.7,0.2c-1.6,0-3.1-0.3-4.5-0.9c-1.4-0.6-2.7-1.5-3.8-2.6c-1.1-1.1-1.9-2.5-2.6-4.2
			c-0.6-1.6-1-3.5-1-5.6c0-1.8,0.3-3.6,0.8-5.2c0.6-1.6,1.4-3,2.4-4.2c1.1-1.2,2.4-2.1,4-2.8c1.6-0.7,3.4-1,5.5-1c2,0,3.8,0.3,5.3,1
			c1.5,0.6,2.9,1.6,4.1,2.8L226.6,22.1z"/>
		<path class="st1" d="M232.1,41.7V4.7h7.7v13.6c0.9-0.8,1.9-1.4,3-1.9c1.1-0.5,2.4-0.7,3.9-0.7c1.4,0,2.6,0.2,3.7,0.7
			c1.1,0.5,2,1.2,2.7,2c0.7,0.9,1.3,1.9,1.7,3.1c0.4,1.2,0.6,2.5,0.6,3.9v16.3h-7.7V25.4c0-1.2-0.3-2.2-0.9-2.9
			c-0.6-0.7-1.4-1-2.5-1c-0.8,0-1.6,0.2-2.4,0.5c-0.7,0.4-1.4,0.8-2.1,1.5v18.2H232.1z"/>
	</g>
	<path class="st0" d="M292.6,7c-3.7-3.7-9.8-3.7-13.6,0l-1.9,1.9l-1.9-1.9c-1.8-1.9-4.3-2.8-6.8-2.8c-2.4,0-4.9,0.9-6.8,2.8
		c-3.7,3.7-3.7,9.7,0,13.4l14.7,14.4c0.4,0.4,1.1,0.4,1.6,0c4.9-4.8,9.8-9.6,14.7-14.4C296.3,16.6,296.3,10.7,292.6,7z"/>
</g>
</svg>
