<?xml version="1.0" encoding="utf-8"?>
<!-- Generator: Adobe Illustrator 24.2.1, SVG Export Plug-In . SVG Version: 6.00 Build 0)  -->
<svg version="1.1" id="Camada_1" xmlns="http://www.w3.org/2000/svg" xmlns:xlink="http://www.w3.org/1999/xlink" x="0px" y="0px"
	 viewBox="0 0 512 520" style="enable-background:new 0 0 512 520;" xml:space="preserve">
<style type="text/css">
	.st0{fill:#6F6ADE;}
</style>
<path class="st0" d="M256,0C114.6,0,0,114.6,0,256s114.6,256,256,256s256-114.6,256-256S397.4,0,256,0z M381,182.8
	c-2,9-5.6,17.1-11.7,24.1c-1.7,2-3.4,4-5.3,5.8c-47.5,47-95,94-142.6,141c-1.5,1.4-3.2,2.5-5.2,3.2c-24.3,7.9-48.6,15.6-72.9,23.4
	c-6.1,1.9-11.1-0.5-12.3-6c-0.3-2-0.1-4.1,0.6-6.1c6.9-23.4,14.1-46.8,20.9-70.3c1.3-4.7,3.9-9,7.4-12.4
	c43.7-43.6,87.4-87.2,130.9-130.9c10.9-10.9,21.9-20.7,37.8-23.7h9.8c0.2,1,0.3,0.4,0.5,0.4c15.4,2.5,25.9,11.9,34.6,24
	c3.9,5.4,6.4,11.7,7.4,18.3V182.8L381,182.8z"/>
</svg>
