<?xml version="1.0" encoding="utf-8"?>
<!-- Generator: Adobe Illustrator 24.1.2, SVG Export Plug-In . SVG Version: 6.00 Build 0)  -->
<svg version="1.1" id="Camada_1" xmlns="http://www.w3.org/2000/svg" xmlns:xlink="http://www.w3.org/1999/xlink" x="0px" y="0px"
	 viewBox="0 0 65.5 65.7" style="enable-background:new 0 0 65.5 65.7;" xml:space="preserve">
<style type="text/css">
	.st0{fill-rule:evenodd;clip-rule:evenodd;fill:#FFFFFF;}
</style>
<g>
	<path class="st0" d="M17.3,0.7c5.3,0,10.2,3.6,13.1,7.8c0.2,0.3,0.5,0.4,0.8,0.4s0.6-0.2,0.8-0.4c2.9-4.3,7.6-7.8,13.1-7.8
		c8.8,0,16,7.2,16,16c0,2.4-0.6,4.6-1.6,6.7c-0.3,0.6-0.7,1-1.3,1.1s-1.2,0-1.7-0.4c-4.9-3.8-11.7-4.4-17.2-1.1
		c-7.2,4.4-9.7,13.8-5.3,21c0.4,0.7,0.8,1.3,1.3,1.9c0.7,0.8,0.6,2.1-0.2,2.8L32,51.4c-0.4,0.3-0.9,0.3-1.3,0l-11.3-9.8
		c-7-6.5-18-14.8-18-24.9C1.3,7.9,8.4,0.7,17.3,0.7z M51.7,46.9c-5.3,2.4-11.8,0.4-14.8-4.8c-3.3-5.5-1.5-12.8,4.1-16
		s12.8-1.5,16,4.1c3.1,5.1,1.7,11.7-3,15.3l1.2,2c1.1,0,2.2,0.5,2.8,1.5l6.2,10.5c0.9,1.5,0.4,3.3-1.1,4.2s-3.3,0.4-4.2-1.1L52.8,52
		c-0.6-1-0.6-2.3,0.1-3.2C52.9,48.9,51.7,46.9,51.7,46.9z M54,32.1c-2.3-3.9-7.2-5.1-11.1-2.9s-5.1,7.2-2.9,11.1
		c2.3,3.9,7.2,5.1,11.1,2.9C55,41,56.2,36,54,32.1z"/>
</g>
</svg>
