<?xml version="1.0" encoding="utf-8"?>
<!-- Generator: Adobe Illustrator 24.1.2, SVG Export Plug-In . SVG Version: 6.00 Build 0)  -->
<svg version="1.1" id="Camada_1" xmlns="http://www.w3.org/2000/svg" xmlns:xlink="http://www.w3.org/1999/xlink" x="0px" y="0px"
	 viewBox="0 0 65.5 65.7" style="enable-background:new 0 0 65.5 65.7;" xml:space="preserve">
<style type="text/css">
	.st0{fill-rule:evenodd;clip-rule:evenodd;fill:#04BFAD;}
</style>
<g>
	<path class="st0" d="M16.8,0.7c5.4,0,10.3,3.6,13.2,7.9c0.2,0.3,0.5,0.4,0.8,0.4s0.6-0.2,0.8-0.4c2.9-4.3,7.7-7.9,13.2-7.9
		C53.7,0.7,61,8,61,16.9c0,2.4-0.6,4.6-1.6,6.8c-0.3,0.6-0.7,1-1.3,1.1c-0.6,0.1-1.2,0-1.7-0.4c-4.9-3.8-11.8-4.4-17.4-1.1
		c-7.3,4.4-9.8,13.9-5.4,21.2c0.4,0.7,0.8,1.3,1.3,1.9c0.7,0.8,0.6,2.1-0.2,2.8l-3.1,2.7c-0.4,0.3-0.9,0.3-1.3,0L18.9,42
		C11.8,35.4,0.7,27.1,0.7,16.9C0.7,8,7.9,0.7,16.8,0.7z M51.6,47.4c-5.4,2.4-11.9,0.4-14.9-4.8c-3.3-5.6-1.5-12.9,4.1-16.2
		c5.6-3.3,12.9-1.5,16.2,4.1c3.1,5.2,1.7,11.8-3,15.4l1.2,2c1.1,0,2.2,0.5,2.8,1.5l6.3,10.6c0.9,1.5,0.4,3.3-1.1,4.2
		c-1.5,0.9-3.3,0.4-4.2-1.1l-6.3-10.6c-0.6-1-0.6-2.3,0.1-3.2C52.8,49.4,51.6,47.4,51.6,47.4z M53.9,32.4c-2.3-3.9-7.3-5.2-11.2-2.9
		c-3.9,2.3-5.2,7.3-2.9,11.2c2.3,3.9,7.3,5.2,11.2,2.9C54.9,41.4,56.1,36.3,53.9,32.4z"/>
</g>
</svg>
