<?xml version="1.0" encoding="utf-8"?>
<!-- Generator: Adobe Illustrator 24.1.2, SVG Export Plug-In . SVG Version: 6.00 Build 0)  -->
<svg version="1.1"
	 id="Camada_1" xmlns:cc="http://creativecommons.org/ns#" xmlns:dc="http://purl.org/dc/elements/1.1/" xmlns:inkscape="http://www.inkscape.org/namespaces/inkscape" xmlns:rdf="http://www.w3.org/1999/02/22-rdf-syntax-ns#" xmlns:sodipodi="http://sodipodi.sourceforge.net/DTD/sodipodi-0.dtd" xmlns:svg="http://www.w3.org/2000/svg"
	 xmlns="http://www.w3.org/2000/svg" xmlns:xlink="http://www.w3.org/1999/xlink" x="0px" y="0px" viewBox="0 0 90 76.5"
	 style="enable-background:new 0 0 90 76.5;" xml:space="preserve">
<style type="text/css">
	.st0{fill:#D90B31;}
</style>
<g transform="translate(0,-952.36218)">
	<path class="st0" d="M23.6,953c-6,0-12.1,2.2-16.7,6.8c-9.2,9.1-9.2,23.8,0,32.9l36.1,35.5c1.1,1.1,2.8,1.1,3.9,0
		c12-11.8,24.1-23.6,36.1-35.4c9.2-9.1,9.2-23.8,0-32.9c-9.2-9.1-24.1-9.1-33.4,0l-4.7,4.6l-4.7-4.7C35.7,955.2,29.7,953,23.6,953
		L23.6,953z M23.6,958.6c4.6,0,9.2,1.8,12.8,5.2l6.7,6.6c1.1,1.1,2.8,1.1,3.9,0l6.6-6.5c7.1-6.9,18.4-6.9,25.5,0
		c7.1,6.9,7.1,17.9,0,24.8c-11.4,11.2-22.7,22.3-34.1,33.5l-34.1-33.6c-7.1-7-7.1-17.9,0-24.8C14.4,960.3,19,958.6,23.6,958.6z"/>
</g>
</svg>
