<?xml version="1.0" encoding="utf-8"?>
<!-- Generator: Adobe Illustrator 24.1.2, SVG Export Plug-In . SVG Version: 6.00 Build 0)  -->
<svg version="1.1" id="Camada_1" xmlns="http://www.w3.org/2000/svg" xmlns:xlink="http://www.w3.org/1999/xlink" x="0px" y="0px"
	 viewBox="0 0 65.5 53.4" style="enable-background:new 0 0 65.5 53.4;" xml:space="preserve">
<style type="text/css">
	.st0{fill-rule:evenodd;clip-rule:evenodd;fill:#FFFFFF;}
</style>
<g>
	<path class="st0" d="M18.9,0.9c5.4,0,10.3,3.6,13.2,7.9c0.2,0.3,0.5,0.4,0.8,0.4s0.6-0.2,0.8-0.4c2.9-4.3,7.7-7.9,13.2-7.9
		C55.8,0.9,63,8.1,63,17c0,2.4-0.6,4.6-1.6,6.8c-0.3,0.6-0.7,1-1.3,1.1s-1.2,0-1.7-0.4c-4.9-3.8-11.8-4.4-17.4-1.1
		c-7.3,4.4-9.8,13.9-5.4,21.2c0.4,0.7,0.8,1.3,1.3,1.9c0.7,0.8,0.6,2.1-0.2,2.8L33.6,52c-0.4,0.3-0.9,0.3-1.3,0L21,42.1
		C13.8,35.5,2.8,27.2,2.8,17C2.8,8.1,10,0.9,18.9,0.9z"/>
</g>
<g>
	<path class="st0" d="M49.2,24.6c6.6,0,11.9,5.3,11.9,11.9s-5.3,11.9-11.9,11.9S37.3,43,37.3,36.5S42.6,24.6,49.2,24.6z M40.3,36.4
		l2.3-2.3c0.2-0.2,0.6-0.2,0.8,0l3.1,3.1c0.2,0.2,0.6,0.2,0.8,0l7.7-7.7c0.2-0.2,0.6-0.2,0.8,0l2.3,2.3c0.2,0.2,0.2,0.6,0,0.8
		L50,40.7l-2.7,2.7c-0.2,0.2-0.6,0.2-0.8,0l-2.7-2.7l-3.5-3.5C40.1,37,40.1,36.6,40.3,36.4z"/>
</g>
</svg>
