<?xml version="1.0" encoding="utf-8"?>
<!-- Generator: Adobe Illustrator 24.1.2, SVG Export Plug-In . SVG Version: 6.00 Build 0)  -->
<svg version="1.1"
	 id="Camada_1" xmlns:cc="http://creativecommons.org/ns#" xmlns:dc="http://purl.org/dc/elements/1.1/" xmlns:inkscape="http://www.inkscape.org/namespaces/inkscape" xmlns:rdf="http://www.w3.org/1999/02/22-rdf-syntax-ns#" xmlns:sodipodi="http://sodipodi.sourceforge.net/DTD/sodipodi-0.dtd" xmlns:svg="http://www.w3.org/2000/svg"
	 xmlns="http://www.w3.org/2000/svg" xmlns:xlink="http://www.w3.org/1999/xlink" x="0px" y="0px" viewBox="0 0 90 76.5"
	 style="enable-background:new 0 0 90 76.5;" xml:space="preserve">
<style type="text/css">
	.st0{fill:#6F6ADE;}
</style>
<g transform="translate(0,-952.36218)">
	<path class="st0" d="M24,953.6c-5.9,0-11.8,2.2-16.3,6.7c-9,8.9-9,23.3,0,32.2l35.3,34.7c1.1,1.1,2.7,1.1,3.8,0
		c11.7-11.5,23.6-23.1,35.3-34.6c9-8.9,9-23.3,0-32.2c-9-8.9-23.6-8.9-32.7,0l-4.6,4.5l-4.6-4.6C35.9,955.8,30,953.6,24,953.6
		L24,953.6z M24,959.1c4.5,0,9,1.8,12.5,5.1l6.6,6.5c1.1,1.1,2.7,1.1,3.8,0l6.5-6.4c6.9-6.8,18-6.8,25,0c6.9,6.8,6.9,17.5,0,24.3
		c-11.2,11-22.2,21.8-33.4,32.8l-33.4-32.9c-6.9-6.9-6.9-17.5,0-24.3C15,960.8,19.5,959.1,24,959.1z"/>
</g>
<g transform="translate(0,-952.36218)">
	<path class="st0" d="M25.6,957.3c-5.4,0-10.7,2-14.8,6c-8.1,8-8.1,21.1,0,29.1l32,31.4c1,1,2.5,1,3.4,0
		c10.7-10.5,21.3-20.9,32-31.4c8.1-8,8.1-21.1,0-29.1c-8.1-8-21.3-8-29.6,0l-4.1,4.1l-4.2-4.1C36.2,959.4,30.9,957.3,25.6,957.3
		L25.6,957.3z"/>
</g>
</svg>
