<?xml version="1.0" encoding="utf-8"?>
<!-- Generator: Adobe Illustrator 24.1.2, SVG Export Plug-In . SVG Version: 6.00 Build 0)  -->
<svg version="1.1"
	 id="Camada_1" xmlns:cc="http://creativecommons.org/ns#" xmlns:dc="http://purl.org/dc/elements/1.1/" xmlns:inkscape="http://www.inkscape.org/namespaces/inkscape" xmlns:rdf="http://www.w3.org/1999/02/22-rdf-syntax-ns#" xmlns:sodipodi="http://sodipodi.sourceforge.net/DTD/sodipodi-0.dtd" xmlns:svg="http://www.w3.org/2000/svg"
	 xmlns="http://www.w3.org/2000/svg" xmlns:xlink="http://www.w3.org/1999/xlink" x="0px" y="0px" viewBox="0 0 77.1 76.5"
	 style="enable-background:new 0 0 77.1 76.5;" xml:space="preserve">
<style type="text/css">
	.st0{fill:#D01039;}
</style>
<path class="st0" d="M51.4,38.3L74,15.7c3.5-3.5,3.5-9.2,0-12.7s-9.2-3.5-12.7,0L38.6,25.5L16.1,3C12.6-0.5,6.9-0.5,3.4,3
	s-3.5,9.2,0,12.7L26,38.3L3.4,60.8c-3.5,3.5-3.5,9.2,0,12.7c1.8,1.8,4.1,2.6,6.4,2.6s4.6-0.9,6.4-2.6L38.6,51l22.6,22.6
	c1.8,1.8,4.1,2.6,6.4,2.6s4.6-0.9,6.4-2.6c3.5-3.5,3.5-9.2,0-12.7L51.4,38.3z"/>
</svg>
