<?xml version="1.0" encoding="utf-8"?>
<!-- Generator: Adobe Illustrator 24.2.1, SVG Export Plug-In . SVG Version: 6.00 Build 0)  -->
<svg version="1.1" id="Camada_1" xmlns="http://www.w3.org/2000/svg" xmlns:xlink="http://www.w3.org/1999/xlink" x="0px" y="0px"
	 viewBox="0 0 512 447" style="enable-background:new 0 0 512 447;" xml:space="preserve">
<style type="text/css">
	.st0{fill:#FFFFFF;}
</style>
<path class="st0" d="M512,268.3c-1,10-1.6,20-3.1,29.9c-8,54.9-31.4,102.3-69.9,142.2c-0.5,0.5-1,0.9-1.6,1.3
	c-27.2-81.9-83.3-128.2-170.1-138.8c33.2-4.9,59.2-20.3,76.9-48.1c17.9-28,21.4-58.3,11.1-89.8c-15.7-48-62.4-76.8-113.7-70.7
	c-46.8,5.5-86,46.7-90.3,93.6c-5.1,56.1,35.4,108.9,92.3,115C158.1,313.2,102,359.5,74.5,441.9c-2.8-2.9-5.8-5.9-8.5-9
	C25.7,387.3,3.7,334.1,0.8,273.2c-0.2-1.7-0.4-3.3-0.8-5V256c0.3-1.7,0.6-3.3,0.8-5c2.3-51.6,18.4-98.4,49.2-139.8
	c42.8-57.5,99.9-91.7,171-102.2c9.6-1.4,19.3-2,28.9-3h12.3c1.5,0.3,3,0.6,4.5,0.7c47.3,2,91,15.7,130.2,42.2
	c63.3,42.8,100.7,102.1,112.2,178c1.4,9.6,2,19.3,3,28.9L512,268.3L512,268.3z"/>
</svg>
